<svg width="177" height="68" viewBox="0 0 177 68" fill="none" xmlns="http://www.w3.org/2000/svg">
<path fill-rule="evenodd" clip-rule="evenodd" d="M20.5514 18.8298C18.2204 22.302 17.4266 26.5347 17.4266 29.4103H14.8311C14.8311 26.1345 15.715 21.3313 18.4175 17.3056C21.1675 13.2091 25.7541 10 32.9069 10C40.0593 10 44.6596 13.2084 47.4285 17.3017C50.1504 21.3254 51.0591 26.1272 51.0755 29.4034L48.48 29.4172C48.4656 26.542 47.6501 22.308 45.2999 18.8337C42.9968 15.429 39.1771 12.6773 32.9069 12.6773C26.6372 12.6773 22.8348 15.4283 20.5514 18.8298Z" fill="white"/>
<path fill-rule="evenodd" clip-rule="evenodd" d="M1.29795 21.4736C2.01468 21.4736 2.5957 22.073 2.5957 22.8123L2.5957 48.8201C2.5957 49.5595 2.01468 50.1588 1.29795 50.1588C0.581217 50.1588 0.00019121 49.5595 0.000191178 48.8201L0.000190076 22.8123C0.000190045 22.073 0.581215 21.4736 1.29795 21.4736Z" fill="white"/>
<path fill-rule="evenodd" clip-rule="evenodd" d="M33.0001 21.4736C33.7168 21.4736 34.2979 22.073 34.2979 22.8123L34.2979 48.8201C34.2979 49.5595 33.7168 50.1588 33.0001 50.1588C32.2834 50.1588 31.7023 49.5595 31.7023 48.8201L31.7023 22.8123C31.7023 22.073 32.2834 21.4736 33.0001 21.4736Z" fill="white"/>
<path fill-rule="evenodd" clip-rule="evenodd" d="M64.7022 21.4736C65.419 21.4736 66 22.073 66 22.8123L66 48.8201C66 49.5595 65.419 50.1588 64.7022 50.1588C63.9855 50.1588 63.4045 49.5595 63.4045 48.8201L63.4045 22.8123C63.4045 22.073 63.9855 21.4736 64.7022 21.4736Z" fill="white"/>
<path fill-rule="evenodd" clip-rule="evenodd" d="M6.11728 26.8286C6.83401 26.8286 7.41504 27.4279 7.41504 28.1673L7.41504 44.9959C7.41504 45.7352 6.83401 46.3345 6.11728 46.3345C5.40055 46.3345 4.81953 45.7352 4.81953 44.9959L4.81953 28.1673C4.81953 27.4279 5.40055 26.8286 6.11728 26.8286Z" fill="white"/>
<path fill-rule="evenodd" clip-rule="evenodd" d="M27.0675 25.4907C27.7842 25.4907 28.3652 26.0901 28.3652 26.8294L28.3652 43.658C28.3652 44.3973 27.7842 44.9966 27.0675 44.9966C26.3507 44.9966 25.7697 44.3973 25.7697 43.658L25.7697 26.8294C25.7697 26.0901 26.3507 25.4907 27.0675 25.4907Z" fill="white"/>
<path fill-rule="evenodd" clip-rule="evenodd" d="M38.7472 25.4907C39.4639 25.4907 40.0449 26.0901 40.0449 26.8294L40.0449 43.658C40.0449 44.3973 39.4639 44.9966 38.7472 44.9966C38.0304 44.9966 37.4494 44.3973 37.4494 43.658L37.4494 26.8294C37.4494 26.0901 38.0304 25.4907 38.7472 25.4907Z" fill="white"/>
<path fill-rule="evenodd" clip-rule="evenodd" d="M59.8819 25.4907C60.5987 25.4907 61.1797 26.0901 61.1797 26.8294L61.1797 43.658C61.1797 44.3973 60.5987 44.9966 59.8819 44.9966C59.1652 44.9966 58.5842 44.3973 58.5842 43.658L58.5842 26.8294C58.5842 26.0901 59.1652 25.4907 59.8819 25.4907Z" fill="white"/>
<path fill-rule="evenodd" clip-rule="evenodd" d="M10.9376 29.8887C11.6543 29.8887 12.2354 30.488 12.2354 31.2273L12.2354 40.4066C12.2354 41.1459 11.6543 41.7452 10.9376 41.7452C10.2209 41.7452 9.63984 41.1459 9.63984 40.4066L9.63984 31.2273C9.63984 30.488 10.2209 29.8887 10.9376 29.8887Z" fill="white"/>
<path fill-rule="evenodd" clip-rule="evenodd" d="M21.6905 29.8887C22.4073 29.8887 22.9883 30.488 22.9883 31.2273L22.9883 40.4066C22.9883 41.1459 22.4073 41.7452 21.6905 41.7452C20.9738 41.7452 20.3928 41.1459 20.3928 40.4066L20.3928 31.2273C20.3928 30.488 20.9738 29.8887 21.6905 29.8887Z" fill="white"/>
<path fill-rule="evenodd" clip-rule="evenodd" d="M44.1231 29.8887C44.8399 29.8887 45.4209 30.488 45.4209 31.2273L45.4209 40.4066C45.4209 41.1459 44.8399 41.7452 44.1231 41.7452C43.4064 41.7452 42.8254 41.1459 42.8254 40.4066L42.8254 31.2273C42.8254 30.488 43.4064 29.8887 44.1231 29.8887Z" fill="white"/>
<path fill-rule="evenodd" clip-rule="evenodd" d="M55.0616 29.8887C55.7783 29.8887 56.3594 30.488 56.3594 31.2273L56.3594 40.4066C56.3594 41.1459 55.7784 41.7452 55.0616 41.7452C54.3449 41.7452 53.7639 41.1459 53.7639 40.4066L53.7639 31.2273C53.7639 30.488 54.3449 29.8887 55.0616 29.8887Z" fill="white"/>
<path fill-rule="evenodd" clip-rule="evenodd" d="M16.129 32.1826C16.8457 32.1826 17.4268 32.7819 17.4268 33.5213L17.4268 38.1109C17.4268 38.8502 16.8457 39.4495 16.129 39.4495C15.4123 39.4495 14.8312 38.8502 14.8312 38.1109L14.8312 33.5213C14.8312 32.7819 15.4123 32.1826 16.129 32.1826Z" fill="white"/>
<path fill-rule="evenodd" clip-rule="evenodd" d="M49.6847 32.1826C50.4014 32.1826 50.9824 32.7819 50.9824 33.5213L50.9824 38.1109C50.9824 38.8502 50.4014 39.4495 49.6847 39.4495C48.9679 39.4495 48.3869 38.8502 48.3869 38.1109L48.3869 33.5213C48.3869 32.7819 48.9679 32.1826 49.6847 32.1826Z" fill="white"/>
<path fill-rule="evenodd" clip-rule="evenodd" d="M19.473 52.0433C16.5851 48.7899 15.1094 44.8226 15.1094 42.0317H17.7049C17.7049 44.0218 18.8432 47.3692 21.3873 50.2353C23.8857 53.0498 27.675 55.3225 32.9072 55.3225C38.1568 55.3225 41.9452 53.1309 44.4339 50.371C46.9634 47.566 48.1095 44.2233 48.1095 42.0317H50.705C50.705 45.0035 49.237 48.9756 46.3344 52.1944C43.3911 55.4584 38.9295 57.9998 32.9072 57.9998C26.8674 57.9998 22.4067 55.3482 19.473 52.0433Z" fill="white"/>
<path d="M99.5504 43.0407C98.7507 43.6155 97.4393 44 96.1264 44C93.6718 44 91.9883 43.0681 90.761 41.2056L88.1352 37.2329C87.565 36.3831 86.9934 36.0273 86.2237 36.0273V43.7263H82V24.2749H88.3932C93.9583 24.2749 96.6981 26.4946 96.6981 30.2195C96.6981 33.3697 94.3574 35.2062 91.1615 35.6715C91.7887 35.9178 92.3603 36.3557 92.845 37.0413L94.2149 38.9586C94.8991 39.9726 95.5563 40.3831 96.6981 40.3831C97.3538 40.3831 97.9539 40.2189 98.5526 39.8631L99.5519 43.0407H99.5504ZM86.2237 27.6167V32.8224H88.3348C91.1601 32.8224 92.4159 31.9999 92.4159 30.1922C92.4159 28.3844 90.9605 27.6167 88.2778 27.6167H86.2237Z" fill="white"/>
<path d="M101.804 24.2749H106.112V43.7263H101.804V24.2749Z" fill="white"/>
<path d="M126.145 27.8639H119.981V43.7272H115.672V27.8639H109.222V24.2744H126.715L126.145 27.8639Z" fill="white"/>
<path d="M130.226 24.2749H133.88L141.128 38.6589L148.291 24.2749H151.945L152.487 43.7263H148.377L148.006 32.6855L142.498 43.7263H139.359L133.908 32.795L133.481 43.7263H129.514L130.228 24.2749H130.226Z" fill="white"/>
<path d="M156.995 34.3566C156.995 28.1369 161.247 24 167.468 24C173.261 24 177 27.9179 177 33.6162C177 39.6977 173.005 43.9454 167.012 43.9728C160.733 44.0002 156.995 40.3833 156.995 34.3566ZM172.663 33.645C172.663 30.0828 170.637 27.6456 167.326 27.6456C163.615 27.6456 161.361 30.5221 161.361 34.2758C161.361 38.0295 163.474 40.3026 166.926 40.3026C170.55 40.3026 172.663 37.5629 172.663 33.645Z" fill="white"/>
</svg>
